<svg id="Layer_1" data-name="Layer 1" xmlns="http://www.w3.org/2000/svg" viewBox="0 0 1704.02 752.08"><defs><style>.cls-1{fill:#fff;}.cls-2{fill:none;stroke:#fff;stroke-width:17px;}.cls-2,.cls-3{stroke-miterlimit:10;}.cls-3{fill:#4f46e5;stroke:#4f46e5;}</style></defs><path class="cls-1" d="M370.27,668.3v58.5H126.37v-315H364.42v58.5H198.82v68.4H345.07v56.7H198.82v72.9Z" transform="translate(-126.37 -182.86)"/><path class="cls-1" d="M428.32,411.8h143.1q51.3,0,90.67,19.57t61.2,55.13q21.83,35.55,21.83,82.8t-21.83,82.8q-21.82,35.55-61.2,55.12T571.42,726.8H428.32ZM567.82,667q47.25,0,75.37-26.33t28.13-71.32q0-45-28.13-71.33t-75.37-26.32h-66.6V667Z" transform="translate(-126.37 -182.86)"/><path class="cls-1" d="M834.89,694.85Q797.32,657.5,797.31,588.2V411.8h72.9V585.5q0,84.6,70.2,84.6,34.2,0,52.2-20.48t18-64.12V411.8h72V588.2q0,69.3-37.57,106.65T940,732.2Q872.46,732.2,834.89,694.85Z" transform="translate(-126.37 -182.86)"/><circle class="cls-2" cx="1336.89" cy="363.94" r="266.84"/><polygon class="cls-3" points="1563.92 99.96 1366.94 304.11 1291.97 381.81 949.1 751.74 1244.43 381.81 1016.52 99.96 1202.4 99.96 1336.58 266.43 1469.06 100.57 1563.92 99.96"/><polygon class="cls-3" points="1088.81 652.12 1285.79 447.97 1360.76 370.27 1703.63 0.34 1408.29 370.27 1636.2 652.12 1450.33 652.12 1316.14 485.64 1183.66 651.51 1088.81 652.12"/></svg>